<mxfile host="app.diagrams.net" modified="2024-05-05T19:32:34.784Z" agent="Mozilla/5.0 (Windows NT 10.0; Win64; x64) AppleWebKit/537.36 (KHTML, like Gecko) Chrome/121.0.0.0 Safari/537.36 OPR/107.0.0.0" etag="Xleu24jPrCENLApRbaXb" version="24.3.1" type="google">
  <diagram name="Страница — 1" id="M9QsT0gdEJazleE0qiKO">
    <mxGraphModel grid="1" page="1" gridSize="10" guides="1" tooltips="1" connect="1" arrows="1" fold="1" pageScale="1" pageWidth="827" pageHeight="1169" math="0" shadow="0">
      <root>
        <mxCell id="0" />
        <mxCell id="1" parent="0" />
        <mxCell id="7V8gBNC0uydayEChwuM2-23" value="" style="rounded=0;whiteSpace=wrap;html=1;" vertex="1" parent="1">
          <mxGeometry x="139" y="90" width="550" height="640" as="geometry" />
        </mxCell>
        <mxCell id="7V8gBNC0uydayEChwuM2-16" style="edgeStyle=orthogonalEdgeStyle;rounded=0;orthogonalLoop=1;jettySize=auto;html=1;entryX=0;entryY=0.5;entryDx=0;entryDy=0;" edge="1" parent="1" source="7V8gBNC0uydayEChwuM2-1" target="7V8gBNC0uydayEChwuM2-2">
          <mxGeometry relative="1" as="geometry" />
        </mxCell>
        <mxCell id="7V8gBNC0uydayEChwuM2-17" style="edgeStyle=orthogonalEdgeStyle;rounded=0;orthogonalLoop=1;jettySize=auto;html=1;" edge="1" parent="1" source="7V8gBNC0uydayEChwuM2-1" target="7V8gBNC0uydayEChwuM2-3">
          <mxGeometry relative="1" as="geometry" />
        </mxCell>
        <mxCell id="7V8gBNC0uydayEChwuM2-18" style="edgeStyle=orthogonalEdgeStyle;rounded=0;orthogonalLoop=1;jettySize=auto;html=1;entryX=0;entryY=0.5;entryDx=0;entryDy=0;" edge="1" parent="1" source="7V8gBNC0uydayEChwuM2-1" target="7V8gBNC0uydayEChwuM2-4">
          <mxGeometry relative="1" as="geometry" />
        </mxCell>
        <mxCell id="7V8gBNC0uydayEChwuM2-19" style="edgeStyle=orthogonalEdgeStyle;rounded=0;orthogonalLoop=1;jettySize=auto;html=1;entryX=0;entryY=0.5;entryDx=0;entryDy=0;" edge="1" parent="1" source="7V8gBNC0uydayEChwuM2-1" target="7V8gBNC0uydayEChwuM2-5">
          <mxGeometry relative="1" as="geometry" />
        </mxCell>
        <mxCell id="7V8gBNC0uydayEChwuM2-20" style="edgeStyle=orthogonalEdgeStyle;rounded=0;orthogonalLoop=1;jettySize=auto;html=1;entryX=0;entryY=0.5;entryDx=0;entryDy=0;" edge="1" parent="1" source="7V8gBNC0uydayEChwuM2-1" target="7V8gBNC0uydayEChwuM2-6">
          <mxGeometry relative="1" as="geometry" />
        </mxCell>
        <mxCell id="7V8gBNC0uydayEChwuM2-1" value="User" style="shape=umlActor;verticalLabelPosition=bottom;verticalAlign=top;html=1;outlineConnect=0;" vertex="1" parent="1">
          <mxGeometry x="70" y="290" width="50" height="100" as="geometry" />
        </mxCell>
        <mxCell id="7V8gBNC0uydayEChwuM2-2" value="Registration" style="ellipse;whiteSpace=wrap;html=1;" vertex="1" parent="1">
          <mxGeometry x="240" y="140" width="90" height="60" as="geometry" />
        </mxCell>
        <mxCell id="7V8gBNC0uydayEChwuM2-3" value="Login" style="ellipse;whiteSpace=wrap;html=1;" vertex="1" parent="1">
          <mxGeometry x="240" y="230" width="90" height="60" as="geometry" />
        </mxCell>
        <mxCell id="7V8gBNC0uydayEChwuM2-4" value="View email" style="ellipse;whiteSpace=wrap;html=1;" vertex="1" parent="1">
          <mxGeometry x="240" y="320" width="90" height="60" as="geometry" />
        </mxCell>
        <mxCell id="7V8gBNC0uydayEChwuM2-5" value="Manage account profile" style="ellipse;whiteSpace=wrap;html=1;" vertex="1" parent="1">
          <mxGeometry x="240" y="410" width="90" height="60" as="geometry" />
        </mxCell>
        <mxCell id="7V8gBNC0uydayEChwuM2-21" style="edgeStyle=orthogonalEdgeStyle;rounded=0;orthogonalLoop=1;jettySize=auto;html=1;dashed=1;" edge="1" parent="1" source="7V8gBNC0uydayEChwuM2-6" target="7V8gBNC0uydayEChwuM2-7">
          <mxGeometry relative="1" as="geometry" />
        </mxCell>
        <mxCell id="7V8gBNC0uydayEChwuM2-25" value="extend" style="edgeLabel;html=1;align=center;verticalAlign=middle;resizable=0;points=[];" connectable="0" vertex="1" parent="7V8gBNC0uydayEChwuM2-21">
          <mxGeometry x="-0.2218" y="-1" relative="1" as="geometry">
            <mxPoint as="offset" />
          </mxGeometry>
        </mxCell>
        <mxCell id="7V8gBNC0uydayEChwuM2-22" style="edgeStyle=orthogonalEdgeStyle;rounded=0;orthogonalLoop=1;jettySize=auto;html=1;dashed=1;" edge="1" parent="1" source="7V8gBNC0uydayEChwuM2-6" target="7V8gBNC0uydayEChwuM2-8">
          <mxGeometry relative="1" as="geometry" />
        </mxCell>
        <mxCell id="7V8gBNC0uydayEChwuM2-26" value="include" style="edgeLabel;html=1;align=center;verticalAlign=middle;resizable=0;points=[];" connectable="0" vertex="1" parent="7V8gBNC0uydayEChwuM2-22">
          <mxGeometry x="-0.1647" relative="1" as="geometry">
            <mxPoint as="offset" />
          </mxGeometry>
        </mxCell>
        <mxCell id="7V8gBNC0uydayEChwuM2-6" value="Send email" style="ellipse;whiteSpace=wrap;html=1;" vertex="1" parent="1">
          <mxGeometry x="240" y="500" width="90" height="60" as="geometry" />
        </mxCell>
        <mxCell id="7V8gBNC0uydayEChwuM2-7" value="Attach file" style="ellipse;whiteSpace=wrap;html=1;" vertex="1" parent="1">
          <mxGeometry x="240" y="630" width="90" height="60" as="geometry" />
        </mxCell>
        <mxCell id="7V8gBNC0uydayEChwuM2-8" value="Compose email" style="ellipse;whiteSpace=wrap;html=1;" vertex="1" parent="1">
          <mxGeometry x="420" y="500" width="90" height="60" as="geometry" />
        </mxCell>
        <mxCell id="7V8gBNC0uydayEChwuM2-9" value="Admin" style="shape=umlActor;verticalLabelPosition=bottom;verticalAlign=top;html=1;outlineConnect=0;" vertex="1" parent="1">
          <mxGeometry x="710" y="290" width="50" height="100" as="geometry" />
        </mxCell>
        <mxCell id="7V8gBNC0uydayEChwuM2-14" style="edgeStyle=orthogonalEdgeStyle;rounded=0;orthogonalLoop=1;jettySize=auto;html=1;endArrow=none;endFill=0;" edge="1" parent="1" source="7V8gBNC0uydayEChwuM2-12">
          <mxGeometry relative="1" as="geometry">
            <mxPoint x="710" y="340" as="targetPoint" />
            <Array as="points">
              <mxPoint x="651" y="170" />
              <mxPoint x="651" y="340" />
            </Array>
          </mxGeometry>
        </mxCell>
        <mxCell id="7V8gBNC0uydayEChwuM2-12" value="Manage all accounts" style="ellipse;whiteSpace=wrap;html=1;" vertex="1" parent="1">
          <mxGeometry x="500" y="140" width="90" height="60" as="geometry" />
        </mxCell>
        <mxCell id="7V8gBNC0uydayEChwuM2-13" value="Manage database" style="ellipse;whiteSpace=wrap;html=1;" vertex="1" parent="1">
          <mxGeometry x="500" y="310" width="90" height="60" as="geometry" />
        </mxCell>
        <mxCell id="7V8gBNC0uydayEChwuM2-15" style="edgeStyle=orthogonalEdgeStyle;rounded=0;orthogonalLoop=1;jettySize=auto;html=1;endArrow=none;endFill=0;" edge="1" parent="1" source="7V8gBNC0uydayEChwuM2-13">
          <mxGeometry relative="1" as="geometry">
            <mxPoint x="710" y="340" as="targetPoint" />
          </mxGeometry>
        </mxCell>
        <mxCell id="7V8gBNC0uydayEChwuM2-24" value="&lt;font style=&quot;font-size: 23px;&quot;&gt;Email system&lt;/font&gt;" style="text;html=1;align=center;verticalAlign=middle;whiteSpace=wrap;rounded=0;" vertex="1" parent="1">
          <mxGeometry x="331" y="50" width="166" height="30" as="geometry" />
        </mxCell>
      </root>
    </mxGraphModel>
  </diagram>
</mxfile>
